<svg width="146" height="81" viewBox="0 0 146 81" fill="none" xmlns="http://www.w3.org/2000/svg">
<g id="Frame 198">
<rect id="Rectangle 142" x="54.241" y="68.5989" width="36.0751" height="3" rx="1.5" fill="#8DCD43"/>
<rect id="Rectangle 147" x="94.645" y="68.5989" width="36.0751" height="3" rx="1.5" fill="#8DCD43"/>
<rect id="Rectangle 150" x="13.8368" y="68.5989" width="36.0751" height="3" rx="1.5" fill="#8DCD43"/>
<rect id="Rectangle 143" x="54.241" y="58.4978" width="36.0751" height="3" rx="1.5" fill="#8DCD43"/>
<rect id="Rectangle 148" x="94.645" y="58.4978" width="36.0751" height="3" rx="1.5" fill="#8DCD43"/>
<rect id="Rectangle 151" x="13.8368" y="58.4978" width="36.0751" height="3" rx="1.5" fill="#8DCD43"/>
<rect id="Rectangle 144" x="54.241" y="48.3967" width="36.0751" height="3" rx="1.5" fill="#8DCD43"/>
<rect id="Rectangle 149" x="94.645" y="48.3967" width="36.0751" height="3" rx="1.5" fill="#8DCD43"/>
<rect id="Rectangle 152" x="13.8368" y="48.3967" width="36.0751" height="3" rx="1.5" fill="#8DCD43"/>
<rect id="Rectangle 153" x="13.8368" y="38.6858" width="36.0751" height="3" rx="1.5" fill="#8DCD43"/>
<rect id="Rectangle 145" x="54.241" y="38.2957" width="36.0751" height="3" rx="1.5" fill="#8DCD43"/>
<rect id="Rectangle 146" x="54.241" y="28.1946" width="36.0751" height="3" rx="1.5" fill="#8DCD43"/>
<g id="Group 219">
<path id="Vector 41" d="M116.348 38.6857H107.632C106.835 38.6857 106.189 38.0396 106.189 37.2427V22.1906C106.189 21.3936 106.835 20.7476 107.632 20.7476H120.619C121.416 20.7476 122.062 21.3936 122.062 22.1906L122.062 37.2427C122.062 38.0396 121.416 38.6857 120.619 38.6857H116.348Z" fill="#8DCD43"/>
<path id="Polygon 5" d="M112.227 2.43723C112.802 1.62625 114.006 1.62625 114.581 2.43723L128.034 21.4066C128.712 22.3622 128.029 23.6844 126.857 23.6844H99.9507C98.7793 23.6844 98.096 22.3622 98.7737 21.4066L112.227 2.43723Z" fill="#8DCD43"/>
</g>
</g>
</svg>
