<svg width="187" height="82" viewBox="0 0 187 82" fill="none" xmlns="http://www.w3.org/2000/svg">
<g id="Frame 131">
<g id="Group 131">
<line id="Line 20" x1="1.38888" y1="45.2104" x2="1.38888" y2="71.2163" stroke="#8DCD43" stroke-width="2.77775"/>
<line id="Line 21" x1="11.0134" y1="36.553" x2="11.0134" y2="71.2162" stroke="#8DCD43" stroke-width="2.77775"/>
<g id="Group 218">
<line id="Line 22" x1="20.6379" y1="25.6077" x2="20.6379" y2="71.2164" stroke="#8DCD43" stroke-width="2.77775"/>
<path id="Union" d="M11.1459 24.3105C8.00891 23.2854 5.39282 20.6159 5.39282 17.3156V11.5297C5.39282 11.1703 5.68906 10.8778 6.04835 10.8887C16.5218 11.2066 20.1101 19.1268 20.5988 23.1589C20.6011 23.1779 20.6171 23.1912 20.6362 23.1912C20.6553 23.1912 20.6713 23.1779 20.6736 23.1589C21.1622 19.1268 24.7506 11.2066 35.224 10.8887C35.5833 10.8778 35.8795 11.1703 35.8795 11.5297V17.3156C35.8795 20.6159 33.2634 23.2854 30.1264 24.3105C25.8156 25.7192 21.369 28.597 20.7441 33.8579C20.7399 33.8936 20.7096 33.9212 20.6736 33.9212C20.6599 33.9212 20.647 33.9173 20.6362 33.9105C20.6253 33.9173 20.6125 33.9212 20.5987 33.9212C20.5627 33.9212 20.5325 33.8936 20.5282 33.8579C19.9033 28.597 15.4568 25.7192 11.1459 24.3105Z" fill="#8DCD43"/>
</g>
<path id="Union_2" d="M68.8927 24.3105C65.7557 23.2854 63.1396 20.6159 63.1396 17.3156V11.5297C63.1396 11.1703 63.4358 10.8778 63.7951 10.8887C74.2686 11.2066 77.8569 19.1268 78.3456 23.1589C78.3479 23.1779 78.3638 23.1912 78.3829 23.1912C78.4021 23.1912 78.418 23.1779 78.4203 23.1589C78.909 19.1268 82.4973 11.2066 92.9708 10.8887C93.3301 10.8778 93.6263 11.1703 93.6263 11.5297V17.3156C93.6263 20.6159 91.0102 23.2854 87.8732 24.3105C83.5624 25.7192 79.1158 28.597 78.4909 33.8579C78.4867 33.8936 78.4564 33.9212 78.4204 33.9212C78.4066 33.9212 78.3938 33.9173 78.383 33.9105C78.3721 33.9173 78.3593 33.9212 78.3455 33.9212C78.3095 33.9212 78.2792 33.8936 78.275 33.8579C77.6501 28.597 73.2035 25.7192 68.8927 24.3105Z" fill="#8DCD43"/>
<path id="Union_3" d="M116.977 24.3105C113.84 23.2854 111.224 20.6159 111.224 17.3156V11.5297C111.224 11.1703 111.52 10.8778 111.88 10.8887C122.353 11.2066 125.941 19.1268 126.43 23.1589C126.432 23.1779 126.448 23.1912 126.467 23.1912C126.486 23.1912 126.502 23.1779 126.505 23.1589C126.993 19.1268 130.582 11.2066 141.055 10.8887C141.414 10.8778 141.711 11.1703 141.711 11.5297V17.3156C141.711 20.6159 139.095 23.2854 135.958 24.3105C131.647 25.7192 127.2 28.597 126.575 33.8579C126.571 33.8936 126.541 33.9212 126.505 33.9212C126.491 33.9212 126.478 33.9173 126.467 33.9105C126.457 33.9173 126.444 33.9212 126.43 33.9212C126.394 33.9212 126.364 33.8936 126.359 33.8579C125.734 28.597 121.288 25.7192 116.977 24.3105Z" fill="#8DCD43"/>
<line id="Line 23" x1="30.2623" y1="36.553" x2="30.2623" y2="71.2162" stroke="#8DCD43" stroke-width="2.77775"/>
<line id="Line 24" x1="39.8868" y1="45.2104" x2="39.8868" y2="71.2163" stroke="#8DCD43" stroke-width="2.77775"/>
<line id="Line 25" x1="49.5113" y1="40.5159" x2="49.5113" y2="71.2163" stroke="#8DCD43" stroke-width="2.77775"/>
<line id="Line 26" x1="59.1357" y1="32.7371" x2="59.1357" y2="71.2163" stroke="#8DCD43" stroke-width="2.77775"/>
<line id="Line 27" x1="68.7602" y1="39.4885" x2="68.7602" y2="71.2163" stroke="#8DCD43" stroke-width="2.77775"/>
<line id="Line 28" x1="78.3847" y1="25.6077" x2="78.3847" y2="71.2164" stroke="#8DCD43" stroke-width="2.77775"/>
<line id="Line 29" x1="88.0092" y1="36.553" x2="88.0092" y2="71.2162" stroke="#8DCD43" stroke-width="2.77775"/>
<line id="Line 30" x1="97.6336" y1="32.7371" x2="97.6336" y2="71.2163" stroke="#8DCD43" stroke-width="2.77775"/>
<line id="Line 31" x1="107.258" y1="41.3965" x2="107.258" y2="71.2163" stroke="#8DCD43" stroke-width="2.77775"/>
<line id="Line 32" x1="116.883" y1="45.2104" x2="116.883" y2="71.2163" stroke="#8DCD43" stroke-width="2.77775"/>
<line id="Line 33" x1="126.507" y1="29.0679" x2="126.507" y2="71.2163" stroke="#8DCD43" stroke-width="2.77775"/>
<line id="Line 34" x1="136.132" y1="45.2104" x2="136.132" y2="71.2163" stroke="#8DCD43" stroke-width="2.77775"/>
</g>
</g>
</svg>
