<svg width="25" height="25" viewBox="0 0 25 25" fill="none" xmlns="http://www.w3.org/2000/svg">
<g id="mdi:instagram">
<path id="Vector" d="M8.59297 2.34375H16.993C20.193 2.34375 22.793 4.94375 22.793 8.14375V16.5438C22.793 18.082 22.1819 19.5573 21.0942 20.645C20.0065 21.7327 18.5312 22.3438 16.993 22.3438H8.59297C5.39297 22.3438 2.79297 19.7438 2.79297 16.5438V8.14375C2.79297 6.60549 3.40404 5.13024 4.49175 4.04253C5.57946 2.95482 7.05471 2.34375 8.59297 2.34375ZM8.39297 4.34375C7.43819 4.34375 6.52252 4.72303 5.84738 5.39817C5.17225 6.0733 4.79297 6.98897 4.79297 7.94375V16.7437C4.79297 18.7337 6.40297 20.3438 8.39297 20.3438H17.193C18.1477 20.3438 19.0634 19.9645 19.7386 19.2893C20.4137 18.6142 20.793 17.6985 20.793 16.7437V7.94375C20.793 5.95375 19.183 4.34375 17.193 4.34375H8.39297ZM18.043 5.84375C18.3745 5.84375 18.6924 5.97545 18.9269 6.20987C19.1613 6.44429 19.293 6.76223 19.293 7.09375C19.293 7.42527 19.1613 7.74321 18.9269 7.97763C18.6924 8.21205 18.3745 8.34375 18.043 8.34375C17.7114 8.34375 17.3935 8.21205 17.1591 7.97763C16.9247 7.74321 16.793 7.42527 16.793 7.09375C16.793 6.76223 16.9247 6.44429 17.1591 6.20987C17.3935 5.97545 17.7114 5.84375 18.043 5.84375ZM12.793 7.34375C14.1191 7.34375 15.3908 7.87053 16.3285 8.80822C17.2662 9.7459 17.793 11.0177 17.793 12.3438C17.793 13.6698 17.2662 14.9416 16.3285 15.8793C15.3908 16.817 14.1191 17.3438 12.793 17.3438C11.4669 17.3438 10.1951 16.817 9.25743 15.8793C8.31975 14.9416 7.79297 13.6698 7.79297 12.3438C7.79297 11.0177 8.31975 9.7459 9.25743 8.80822C10.1951 7.87053 11.4669 7.34375 12.793 7.34375ZM12.793 9.34375C11.9973 9.34375 11.2343 9.65982 10.6716 10.2224C10.109 10.785 9.79297 11.5481 9.79297 12.3438C9.79297 13.1394 10.109 13.9025 10.6716 14.4651C11.2343 15.0277 11.9973 15.3438 12.793 15.3438C13.5886 15.3438 14.3517 15.0277 14.9143 14.4651C15.4769 13.9025 15.793 13.1394 15.793 12.3438C15.793 11.5481 15.4769 10.785 14.9143 10.2224C14.3517 9.65982 13.5886 9.34375 12.793 9.34375Z" fill="#8DCD43"/>
</g>
</svg>
