<svg width="25" height="25" viewBox="0 0 25 25" fill="none" xmlns="http://www.w3.org/2000/svg">
<g id="mingcute:telegram-fill" clip-path="url(#clip0_1_80)">
<g id="Group">
<path id="Vector" fill-rule="evenodd" clip-rule="evenodd" d="M20.57 4.77372C20.8171 4.66971 21.0876 4.63383 21.3533 4.66983C21.619 4.70583 21.8701 4.81238 22.0807 4.9784C22.2912 5.14442 22.4534 5.36383 22.5504 5.6138C22.6473 5.86377 22.6755 6.13516 22.632 6.39972L20.364 20.1567C20.144 21.4837 18.688 22.2447 17.471 21.5837C16.453 21.0307 14.941 20.1787 13.581 19.2897C12.901 18.8447 10.818 17.4197 11.074 16.4057C11.294 15.5387 14.794 12.2807 16.794 10.3437C17.579 9.58272 17.221 9.14372 16.294 9.84372C13.992 11.5817 10.296 14.2247 9.07399 14.9687C7.99599 15.6247 7.43399 15.7367 6.76199 15.6247C5.53599 15.4207 4.39899 15.1047 3.47099 14.7197C2.21699 14.1997 2.27799 12.4757 3.46999 11.9737L20.57 4.77372Z" fill="#8DCD43"/>
</g>
</g>
<defs>
<clipPath id="clip0_1_80">
<rect width="24" height="24" fill="white" transform="translate(0.792969 0.34375)"/>
</clipPath>
</defs>
</svg>
