<svg width="72" height="50" viewBox="0 0 72 50" fill="none" xmlns="http://www.w3.org/2000/svg">
<path d="M1 25C1 11.7452 11.7452 1 25 1H47C60.2548 1 71 11.7452 71 25C71 38.2548 60.2548 49 47 49H25C11.7452 49 1 38.2548 1 25Z" stroke="#E4BD34" stroke-width="2"/>
<path d="M17.9883 33L23.9883 23.3555H24.4805L28.8281 15.9375H31.9922L26.3555 25.2305H25.875L21.2109 33H17.9883ZM18.2578 15.9375L21.8438 15.9492L26.25 23.3438H26.2969L32.3672 33H28.7461L24.0703 25.2773H24.0234L18.2578 15.9375ZM34.605 33V15.9375H37.7691V33H34.605ZM40.2178 18.4102V15.9375H53.5303V18.4102H48.4678V33H45.292V18.4102H40.2178Z" fill="#E4BD34"/>
</svg>
