<svg width="50" height="50" viewBox="0 0 50 50" fill="none" xmlns="http://www.w3.org/2000/svg">
<g id="Frame 127">
<g id="Group 124">
<line id="Line 20" x1="1.38888" y1="35.7308" x2="1.38888" y2="49.7308" stroke="#8DCD43" stroke-width="2.77775"/>
<line id="Line 21" x1="11.3889" y1="30.7308" x2="11.3889" y2="49.7308" stroke="#8DCD43" stroke-width="2.77775"/>
<line id="Line 22" x1="20.3889" y1="24.7308" x2="20.3889" y2="49.7308" stroke="#8DCD43" stroke-width="2.77775"/>
<path id="Union" d="M11.1459 23.4221C8.00891 22.397 5.39282 19.7275 5.39282 16.4272V10.6413C5.39282 10.2818 5.68906 9.98939 6.04835 10.0003C16.5218 10.3181 20.1101 18.2384 20.5988 22.2705C20.6011 22.2894 20.6171 22.3028 20.6362 22.3028C20.6553 22.3028 20.6713 22.2894 20.6736 22.2705C21.1622 18.2384 24.7506 10.3181 35.224 10.0003C35.5833 9.98939 35.8795 10.2818 35.8795 10.6413V16.4272C35.8795 19.7275 33.2634 22.397 30.1264 23.4221C25.8156 24.8308 21.369 27.7086 20.7441 32.9694C20.7399 33.0052 20.7096 33.0328 20.6736 33.0328C20.6599 33.0328 20.647 33.0289 20.6362 33.0221C20.6253 33.0289 20.6125 33.0328 20.5987 33.0328C20.5627 33.0328 20.5325 33.0052 20.5282 32.9694C19.9033 27.7086 15.4568 24.8308 11.1459 23.4221Z" fill="#8DCD43"/>
</g>
<g id="Group 219">
<path id="Vector 41" d="M35.26 50H29.7C29.5895 50 29.5 49.9105 29.5 49.8V37.2C29.5 37.0895 29.5895 37 29.7 37H38.3C38.4105 37 38.5 37.0895 38.5 37.2L38.5 49.8C38.5 49.9105 38.4105 50 38.3 50H35.26Z" fill="#8DCD43"/>
<path id="Polygon 5" d="M33.8289 27.2829C33.9067 27.1543 34.0933 27.1543 34.1711 27.2829L43.3427 42.4465C43.4233 42.5798 43.3273 42.75 43.1716 42.75H24.8284C24.6726 42.75 24.5767 42.5798 24.6573 42.4465L33.8289 27.2829Z" fill="#8DCD43"/>
</g>
</g>
</svg>
