<svg width="50" height="50" viewBox="0 0 50 50" fill="none" xmlns="http://www.w3.org/2000/svg">
<g id="Frame 1000002890" clip-path="url(#clip0_1_294)">
<g id="Group 127">
<g id="Group 126">
<g id="Mask group">
<mask id="mask0_1_294" style="mask-type:alpha" maskUnits="userSpaceOnUse" x="13" y="1" width="42" height="48">
<path id="Vector 38" d="M19.645 35.174L22.1939 42.4565L23.4992 45.523C23.8617 46.3744 24.6022 47.0066 25.5 47.2311L30.464 48.4721C30.9589 48.5958 31.4775 48.5892 31.9692 48.4529L51.4765 43.0432C52.7325 42.6949 53.6116 41.5643 53.6396 40.2612L54.0526 21.0121C54.0592 20.708 54.0186 20.4046 53.9325 20.1128L49.9372 6.57772C49.6394 5.56891 48.8275 4.79467 47.8057 4.54516L34.4323 1.27961C33.6971 1.10009 32.9211 1.2097 32.2644 1.5858L23.6581 6.51481C23.1926 6.78142 22.8085 7.1698 22.5471 7.63824L14.2528 22.5017C13.7547 23.3943 13.7537 24.481 14.25 25.3745L19.4392 34.7156C19.5207 34.8623 19.5895 35.0156 19.645 35.174Z" fill="#8DCD43"/>
</mask>
<g mask="url(#mask0_1_294)">
<circle id="Ellipse 13" cx="29.1249" cy="24.8305" r="17.3108" stroke="#8DCD43" stroke-width="2.78"/>
</g>
</g>
<path id="Vector 37" d="M28.4358 14.3177V24.0704C28.4358 25.7012 29.7578 27.0232 31.3886 27.0232H35.9901" stroke="#8DCD43" stroke-width="2.78" stroke-linecap="round"/>
</g>
<g id="Group 124">
<g id="Group 125">
<g id="Union">
<mask id="path-4-inside-1_1_294" fill="white">
<path fill-rule="evenodd" clip-rule="evenodd" d="M10.8361 22.385C11.3635 23.2986 11.3635 24.4242 10.8361 25.3378L2.4 39.9495C1.26348 41.918 2.68414 44.3787 4.95719 44.3787H20.4124C22.6854 44.3787 24.1061 41.918 22.9695 39.9495L14.5335 25.3378C14.006 24.4242 14.006 23.2986 14.5335 22.385L22.9695 7.77329C24.1061 5.80477 22.6854 3.34412 20.4124 3.34412H4.95719C2.68414 3.34412 1.26348 5.80477 2.4 7.77329L10.8361 22.385Z"/>
</mask>
<path d="M14.5335 25.3378L16.941 23.9478L14.5335 25.3378ZM14.5335 22.385L16.941 23.775L14.5335 22.385ZM2.4 39.9495L-0.00754786 38.5595L2.4 39.9495ZM4.80755 41.3395L13.2436 26.7278L8.42852 23.9478L-0.00754786 38.5595L4.80755 41.3395ZM20.4124 41.5987H4.95719V47.1587H20.4124V41.5987ZM12.1259 26.7278L20.562 41.3395L25.3771 38.5595L16.941 23.9478L12.1259 26.7278ZM16.941 23.775L25.3771 9.16329L20.562 6.38329L12.1259 20.995L16.941 23.775ZM20.4124 0.564116H4.95719V6.12412H20.4124V0.564116ZM-0.00754786 9.16329L8.42852 23.775L13.2436 20.995L4.80755 6.38329L-0.00754786 9.16329ZM4.95719 0.564116C0.544094 0.564116 -2.2141 5.34143 -0.00754786 9.16329L4.80755 6.38329C4.78012 6.33577 4.77981 6.31146 4.78002 6.29939C4.78038 6.27882 4.78682 6.24642 4.80755 6.21051C4.82829 6.17459 4.85313 6.15282 4.87076 6.14222C4.88111 6.136 4.90232 6.12412 4.95719 6.12412V0.564116ZM25.3771 9.16329C27.5836 5.34144 24.8255 0.564116 20.4124 0.564116V6.12412C20.4672 6.12412 20.4884 6.136 20.4988 6.14222C20.5164 6.15281 20.5413 6.17459 20.562 6.21051C20.5827 6.24642 20.5892 6.27882 20.5895 6.29939C20.5897 6.31146 20.5894 6.33578 20.562 6.38329L25.3771 9.16329ZM16.941 23.9478C16.9102 23.8943 16.9102 23.8285 16.941 23.775L12.1259 20.995C11.1019 22.7687 11.1019 24.954 12.1259 26.7278L16.941 23.9478ZM20.4124 47.1587C24.8255 47.1587 27.5836 42.3813 25.3771 38.5595L20.562 41.3395C20.5894 41.387 20.5897 41.4113 20.5895 41.4234C20.5892 41.444 20.5827 41.4764 20.562 41.5123C20.5413 41.5482 20.5164 41.57 20.4988 41.5806C20.4884 41.5868 20.4672 41.5987 20.4124 41.5987V47.1587ZM13.2436 26.7278C14.2677 24.9541 14.2677 22.7687 13.2436 20.995L8.42852 23.775C8.45939 23.8285 8.45939 23.8943 8.42852 23.9478L13.2436 26.7278ZM-0.00754786 38.5595C-2.2141 42.3813 0.544094 47.1587 4.95719 47.1587V41.5987C4.90232 41.5987 4.88111 41.5868 4.87076 41.5806C4.85313 41.57 4.82829 41.5482 4.80755 41.5123C4.78682 41.4764 4.78038 41.444 4.78002 41.4234C4.77981 41.4113 4.78012 41.387 4.80755 41.3395L-0.00754786 38.5595Z" fill="#8DCD43" mask="url(#path-4-inside-1_1_294)"/>
</g>
<path id="Vector 35" d="M10.2358 34.7639C8.97888 34.3069 6.67351 35.6339 5.43583 36.2766L2.88123 40.3334V42.3327L4.16686 43.6893L21.8745 43.2609L22.9455 41.9043L22.3029 40.3334L18.5186 33.9072C17.4952 34.1928 15.1627 34.921 14.0203 35.5495C12.5923 36.335 11.8068 35.3352 10.2358 34.7639Z" fill="#8DCD43"/>
<path id="Vector 36" d="M12.1735 15.6358C11.1016 15.3232 9.08456 15.9522 8.21005 16.3057C9.21495 18.3711 11.3252 22.6806 11.7272 23.3951C12.1291 24.1097 13.0855 23.6928 13.5135 23.3951L17.3094 16.3057H15.5231C14.6858 16.3057 13.5135 16.0265 12.1735 15.6358Z" fill="#8DCD43"/>
</g>
</g>
</g>
</g>
<defs>
<clipPath id="clip0_1_294">
<rect width="50" height="50" fill="white"/>
</clipPath>
</defs>
</svg>
